<svg width="310" height="56" viewBox="0 0 310 56" fill="none" xmlns="http://www.w3.org/2000/svg">
<path d="M14.8048 45H2.91511V11.4599H14.9031C18.2767 11.4599 21.1809 12.1313 23.6156 13.4743C26.0504 14.8063 27.9228 16.7224 29.233 19.2226C30.554 21.7228 31.2146 24.7143 31.2146 28.1972C31.2146 31.691 30.554 34.6934 29.233 37.2045C27.9228 39.7157 26.0394 41.6427 23.5829 42.9856C21.1373 44.3285 18.2112 45 14.8048 45ZM10.0064 38.9241H14.51C16.6063 38.9241 18.3695 38.5529 19.7998 37.8105C21.241 37.0572 22.3219 35.8944 23.0424 34.3222C23.774 32.7391 24.1397 30.6974 24.1397 28.1972C24.1397 25.7188 23.774 23.6935 23.0424 22.1213C22.3219 20.5491 21.2464 19.3918 19.8162 18.6494C18.3859 17.907 16.6227 17.5358 14.5264 17.5358H10.0064V38.9241ZM36.4675 45V11.4599H59.0678V17.3065H43.5587V25.2985H57.905V31.1451H43.5587V39.1534H59.1333V45H36.4675ZM70.765 11.4599L78.8717 36.9425H79.1828L87.3058 11.4599H95.1668L83.6046 45H74.4662L62.8877 11.4599H70.765ZM106.295 11.4599V45H99.2037V11.4599H106.295ZM141.723 23.2022H134.549C134.418 22.2742 134.151 21.4499 133.747 20.7293C133.343 19.9978 132.824 19.3754 132.191 18.8623C131.558 18.3492 130.826 17.9561 129.997 17.6832C129.178 17.4102 128.288 17.2737 127.327 17.2737C125.591 17.2737 124.079 17.705 122.791 18.5675C121.502 19.4191 120.503 20.6638 119.794 22.3015C119.084 23.9283 118.729 25.9044 118.729 28.2299C118.729 30.621 119.084 32.6299 119.794 34.2567C120.514 35.8835 121.519 37.1117 122.807 37.9415C124.095 38.7713 125.586 39.1862 127.278 39.1862C128.228 39.1862 129.107 39.0606 129.915 38.8095C130.734 38.5584 131.46 38.1926 132.093 37.7122C132.726 37.2209 133.25 36.6259 133.665 35.9271C134.091 35.2284 134.386 34.4314 134.549 33.5361L141.723 33.5688C141.537 35.1083 141.073 36.5931 140.33 38.0234C139.599 39.4427 138.611 40.7147 137.366 41.8392C136.132 42.9529 134.659 43.8372 132.944 44.4923C131.241 45.1365 129.314 45.4586 127.163 45.4586C124.172 45.4586 121.497 44.7816 119.139 43.4278C116.791 42.074 114.935 40.1142 113.57 37.5485C112.217 34.9827 111.54 31.8766 111.54 28.2299C111.54 24.5724 112.228 21.4608 113.603 18.8951C114.979 16.3293 116.846 14.375 119.204 13.0321C121.562 11.6783 124.215 11.0013 127.163 11.0013C129.107 11.0013 130.908 11.2743 132.568 11.8202C134.238 12.3661 135.718 13.1631 137.006 14.2112C138.294 15.2484 139.342 16.5204 140.15 18.0271C140.969 19.5338 141.493 21.2588 141.723 23.2022ZM146.808 45V11.4599H169.408V17.3065H153.899V25.2985H168.245V31.1451H153.899V39.1534H169.473V45H146.808Z" fill="#385E85"/>
<path d="M180.877 11.4599V45H179.829V11.4599H180.877ZM216.513 11.4599V45H215.465L192.537 13.4251H192.406V45H191.358V11.4599H192.406L215.334 43.0348H215.465V11.4599H216.513ZM235.76 45H226.982V11.4599H236.612C239.702 11.4599 242.344 12.1259 244.539 13.4579C246.744 14.779 248.431 16.6787 249.599 19.1571C250.778 21.6355 251.362 24.6161 251.351 28.0989C251.34 31.6691 250.718 34.7152 249.484 37.2373C248.262 39.7484 246.487 41.67 244.162 43.002C241.847 44.334 239.047 45 235.76 45ZM228.03 43.9519H235.76C238.861 43.9519 241.498 43.3241 243.671 42.0685C245.843 40.802 247.492 38.9842 248.616 36.615C249.752 34.2458 250.314 31.4071 250.303 28.0989C250.292 24.8344 249.746 22.0394 248.666 19.7139C247.596 17.3884 246.045 15.6087 244.014 14.375C241.984 13.1303 239.516 12.508 236.612 12.508H228.03V43.9519ZM259.949 45V11.4599H277.833V12.508H260.997V27.7059H276.85V28.754H260.997V43.9519H278.292V45H259.949ZM284.523 11.4599L295.07 27.2473H295.201L305.748 11.4599H307.058L295.79 28.2299L307.058 45H305.748L295.201 29.2126H295.07L284.523 45H283.213L294.48 28.2299L283.213 11.4599H284.523Z" fill="black"/>
<path d="M227 12V44.7805C232.764 45.0083 237.197 45.3008 242.027 44.2602C246.857 43.2195 250.601 36.4277 251.151 34.374C251.701 32.3203 252.749 26.9408 251.151 21.8862C248.707 15.7144 245.119 13.1501 239.344 12H227Z" fill="#00B1E2" stroke="#00B1E2"/>
<path d="M232 32.5C231.588 32.5 231.234 32.353 230.94 32.059C230.646 31.765 230.5 31.412 230.5 31V22.75C230.5 22.3375 230.647 21.9843 230.941 21.6903C231.235 21.3963 231.588 21.2495 232 21.25H244C244.413 21.25 244.766 21.397 245.06 21.691C245.354 21.985 245.501 22.338 245.5 22.75V31C245.5 31.4125 245.353 31.7658 245.059 32.0598C244.765 32.3538 244.412 32.5005 244 32.5H232ZM230.5 34.75C230.288 34.75 230.109 34.678 229.965 34.534C229.821 34.39 229.75 34.212 229.75 34C229.75 33.7875 229.822 33.6093 229.966 33.4653C230.11 33.3213 230.288 33.2495 230.5 33.25H245.5C245.713 33.25 245.891 33.322 246.035 33.466C246.179 33.61 246.251 33.788 246.25 34C246.25 34.2125 246.178 34.3907 246.034 34.5347C245.89 34.6788 245.712 34.7505 245.5 34.75H230.5Z" fill="white"/>
</svg>
